<?xml version="1.0" standalone="no"?>
<!DOCTYPE svg PUBLIC "-//W3C//DTD SVG 20010904//EN"
 "http://www.w3.org/TR/2001/REC-SVG-20010904/DTD/svg10.dtd">
<svg version="1.0" xmlns="http://www.w3.org/2000/svg"
 width="640.000000pt" height="640.000000pt" viewBox="0 0 640.000000 640.000000"
 preserveAspectRatio="xMidYMid meet">
<metadata>
Created by potrace 1.11, written by Peter Selinger 2001-2013
</metadata>
<g transform="translate(0.000000,640.000000) scale(0.100000,-0.100000)"
fill="#000000" stroke="none">
<path d="M2870 6063 c-183 -30 -341 -177 -399 -368 -27 -93 -24 -254 8 -344
42 -119 111 -208 216 -276 80 -51 216 -114 269 -124 317 -58 603 214 583 554
-9 152 -62 272 -166 372 -47 45 -91 73 -232 144 -82 42 -186 58 -279 42z"/>
<path d="M712 5565 c-170 -53 -259 -163 -318 -391 -51 -196 -32 -390 56 -597
119 -275 240 -375 670 -552 201 -83 336 -171 465 -307 97 -101 124 -137 265
-348 132 -199 264 -375 314 -421 17 -16 42 -32 56 -35 14 -4 43 -20 65 -35 93
-65 173 -40 405 125 190 135 352 278 460 406 30 36 57 67 60 70 13 12 121 161
165 228 27 40 52 69 55 65 28 -31 230 -304 229 -310 0 -4 -37 -38 -82 -75
-165 -134 -301 -264 -533 -510 -172 -181 -237 -283 -266 -418 -27 -123 -7
-255 107 -710 50 -202 232 -834 254 -885 5 -11 28 -72 51 -135 78 -210 124
-284 200 -319 19 -9 56 -29 82 -45 123 -73 298 -27 350 91 38 87 31 255 -29
652 -2 18 -7 43 -9 55 -2 11 -7 48 -10 81 -3 33 -8 62 -9 65 -2 3 -6 33 -10
65 -8 75 -48 340 -76 505 -11 69 -23 139 -26 155 -2 17 -10 59 -17 95 l-12 65
305 230 c167 127 308 231 311 233 4 1 31 -32 61 -75 29 -43 57 -82 62 -88 4
-5 139 -194 300 -420 349 -489 743 -1033 845 -1165 193 -250 357 -423 425
-449 14 -6 45 -22 69 -37 87 -56 213 -63 305 -18 28 13 59 37 69 52 24 35 27
142 7 219 -31 120 -153 381 -288 618 -38 66 -75 131 -82 145 -8 14 -22 37 -31
52 -9 15 -55 91 -102 168 -47 78 -90 149 -95 158 -26 43 -367 619 -377 637 -6
11 -37 65 -68 120 -86 152 -325 592 -450 830 -34 66 -80 152 -100 190 -88 164
-183 348 -449 867 -66 130 -121 240 -121 246 0 11 111 47 190 61 57 10 248 8
310 -3 104 -20 147 -41 297 -142 268 -182 407 -249 537 -259 114 -9 168 36
168 140 0 115 -57 212 -216 369 -136 134 -252 215 -451 313 -102 51 -316 117
-440 136 -16 3 -57 10 -90 16 -260 47 -537 31 -759 -44 -186 -62 -243 -107
-305 -237 -64 -134 -88 -152 -216 -163 -44 -4 -97 -14 -118 -22 -75 -30 -144
-138 -206 -320 -25 -76 -32 -113 -36 -215 -12 -261 -32 -325 -158 -493 -78
-104 -284 -307 -420 -415 -59 -47 -111 -86 -116 -88 -11 -4 -137 190 -199 308
-106 198 -134 294 -147 501 -6 86 -8 105 -19 184 -5 39 -8 71 -21 225 -3 41
-8 91 -10 110 -2 19 -7 60 -10 90 -10 86 -42 214 -69 269 -39 82 -109 172
-199 257 -106 100 -203 165 -378 250 -118 58 -296 70 -427 29z m376 -183 c136
-43 301 -209 396 -399 20 -39 36 -74 36 -78 0 -4 6 -21 14 -38 13 -31 27 -82
42 -157 13 -62 11 -201 -2 -266 -30 -144 -113 -247 -222 -278 -118 -33 -281
-11 -376 51 -89 58 -192 172 -254 283 -150 267 -153 634 -7 808 79 94 220 121
373 74z m567 -1440 c21 -78 19 -84 -15 -57 -8 7 -48 30 -87 51 -40 21 -73 43
-73 48 0 5 3 7 6 3 7 -7 105 21 119 34 18 18 29 2 50 -79z"/>
<path d="M260 3283 c-100 -25 -176 -91 -224 -193 -28 -59 -31 -74 -30 -160 1
-147 38 -215 179 -328 90 -73 157 -97 249 -90 121 10 223 86 278 206 27 58 31
78 31 152 0 129 -25 185 -127 284 -126 123 -232 162 -356 129z"/>
</g>
</svg>
